# xmcd CD database file
# Copyright (C) 1997 Ti Kan
#
# Track frame offsets:
#  187
#  19640
#  40192
#  55247
#  75100
#  98227
#  119645
#  136187
#  151137
#  169050
#
# Disc length: 2574 seconds
#
# Revision: 1
# Processed by: cddbd v1.4b41PL1 Copyright (c) Steve Scherf et al.
# Submitted via: CDWizzard Release:4.32
#
DISCID=6f0a0c0a
DTITLE=Ronnie Milsap - Lost In The Fifties Tonight
DYEAR=1900
DGENRE=
TTITLE0=Lost In The Fifties Tonight (in the still of the night)
TTITLE1=In Love
TTITLE2=Old Fashioned Girl Like You
TTITLE3=I Heard It Through The Grapevine
TTITLE4=Don't Take It Tonight
TTITLE5=How Do I Turn You On
TTITLE6=Happy, Happy Birthday Baby
TTITLE7=Nashville Moon
TTITLE8=I Only Remember The Good Times
TTITLE9=Money (that's what I want)
EXTD=
EXTT0=
EXTT1=
EXTT2=
EXTT3=
EXTT4=
EXTT5=
EXTT6=
EXTT7=
EXTT8=
EXTT9=
PLAYORDER=
